<?xml version="1.0" encoding="UTF-8" standalone="no"?>
<!-- Created with Inkscape (http://www.inkscape.org/) -->

<svg
   width="51.232456mm"
   height="83.559563mm"
   viewBox="0 0 51.232458 83.55956"
   version="1.1"
   id="svg1"
   xml:space="preserve"
   inkscape:version="1.3 (0e150ed6c4, 2023-07-21)"
   sodipodi:docname="monitor.svg"
   xmlns:inkscape="http://www.inkscape.org/namespaces/inkscape"
   xmlns:sodipodi="http://sodipodi.sourceforge.net/DTD/sodipodi-0.dtd"
   xmlns="http://www.w3.org/2000/svg"
   xmlns:svg="http://www.w3.org/2000/svg"><sodipodi:namedview
     id="namedview1"
     pagecolor="#ffffff"
     bordercolor="#000000"
     borderopacity="0.25"
     inkscape:showpageshadow="2"
     inkscape:pageopacity="0.0"
     inkscape:pagecheckerboard="0"
     inkscape:deskcolor="#d1d1d1"
     inkscape:document-units="mm"
     inkscape:zoom="1.3647868"
     inkscape:cx="296.74966"
     inkscape:cy="245.09323"
     inkscape:window-width="1920"
     inkscape:window-height="991"
     inkscape:window-x="1791"
     inkscape:window-y="-9"
     inkscape:window-maximized="1"
     inkscape:current-layer="layer1"><inkscape:page
       x="0"
       y="0"
       width="51.23246"
       height="83.559563"
       id="page1"
       margin="0 69.607941 514.99927 135.74426"
       bleed="0" /></sodipodi:namedview><defs
     id="defs1" /><g
     inkscape:label="Capa 1"
     inkscape:groupmode="layer"
     id="layer1"
     transform="translate(-18.369083,6.5799701)"><path
       style="fill:#ffcc00"
       d="m 31.159666,73.250468 -2.70432,-1.10634 -0.45687,-0.45866 -0.45686,-0.45865 0.34056,-2.02682 0.34057,-2.026824 -0.88355,-0.872342 -0.88355,-0.872342 -1.45521,0.388416 -1.45521,0.388415 -0.78801,-0.07331 -0.78801,-0.0733 -1.30827,-2.991679 -1.30827,-2.991679 0.2442,-0.689774 0.24419,-0.689775 1.52136,-1.038356 1.52135,-1.038356 v -1.148013 -1.148013 l -1.58722,-0.964188 -1.58723,-0.964188 -0.17234,-0.686653 -0.17234,-0.686653 0.47347,-1.392903 c 0.2604,-0.766097 0.84385,-2.145198 1.29654,-3.06467 l 0.82308,-1.671766 0.70153,-0.0812 0.70154,-0.0812 1.45803,0.380747 1.45804,0.380746 0.91382,-0.961 0.91383,-0.961001 -0.35631,-1.322916 c -0.19597,-0.727605 -0.35861,-1.631886 -0.36142,-2.009514 l -0.005,-0.686597 0.46302,-0.409909 c 0.25467,-0.22545 1.63914,-0.907824 3.07662,-1.516388 l 2.61359,-1.10648 0.64143,0.160988 0.64143,0.160988 0.97831,1.567015 0.97831,1.567014 1.24864,0.01196 1.24864,0.01196 0.96934,-1.521354 c 1.07953,-1.694284 1.3157,-1.908328 2.11202,-1.914177 l 0.55156,-0.0041 2.59179,1.054566 c 1.42549,0.580011 2.75487,1.189902 2.95417,1.355313 l 0.36238,0.300748 -0.003,0.695207 c -0.002,0.382364 -0.17883,1.350051 -0.39358,2.150416 l -0.39044,1.455208 0.91492,0.869169 0.91491,0.86917 1.56738,-0.406149 c 0.86206,-0.223381 1.79963,-0.406148 2.08349,-0.406148 h 0.51612 l 0.408,0.463021 c 0.49601,0.562892 2.58443,5.530287 2.58443,6.147179 v 0.441308 l -0.59532,0.523599 c -0.32742,0.287979 -1.10761,0.850363 -1.73375,1.249742 l -1.13845,0.726143 0.0801,1.238903 0.0801,1.238902 1.5875,0.956574 1.5875,0.956573 0.0859,0.725079 0.0859,0.725079 -1.10227,2.742623 -1.10228,2.742623 -0.39197,0.325312 -0.39198,0.325313 -2.00322,-0.336601 -2.00322,-0.3366 -0.87318,0.883551 -0.87318,0.883551 0.42738,1.763267 0.42737,1.76328 -0.40887,0.624 -0.40886,0.62401 -2.63213,1.11845 -2.63213,1.11845 h -0.53004 -0.53004 l -0.52243,-0.59531 c -0.28734,-0.32742 -0.86006,-1.10133 -1.27273,-1.71979 l -0.7503,-1.12448 h -1.14182 -1.14182 l -1.19811,1.85208 -1.19811,1.85208 -0.46836,-0.0181 c -0.25759,-0.01 -1.6853,-0.516 -3.17267,-1.12448 z m 4.01724,-2.42926 1.00578,-1.71979 h 2.15911 2.15911 l 1.00603,1.71979 c 0.55332,0.94588 1.06343,1.71979 1.13357,1.71979 0.12032,0 4.62523,-1.87856 4.7982,-2.00087 0.0445,-0.0315 -0.1043,-0.77222 -0.33073,-1.64607 -0.22644,-0.873846 -0.40914,-1.809751 -0.406,-2.079788 l 0.006,-0.490975 1.37021,-1.424946 1.3702,-1.424946 1.95594,0.461114 1.95594,0.461113 0.19949,-0.226792 c 0.28408,-0.322963 1.95615,-4.596732 1.83577,-4.692195 -0.055,-0.04362 -0.83544,-0.526817 -1.73431,-1.073769 l -1.6343,-0.994458 -0.0855,-2.109899 -0.0855,-2.109899 1.71979,-1.075498 c 0.94588,-0.591524 1.75234,-1.101742 1.79212,-1.133817 0.10366,-0.08357 -1.78376,-4.457963 -2.0324,-4.710404 l -0.20747,-0.210646 -1.90138,0.526897 -1.90137,0.526897 -1.46821,-1.506876 -1.4682,-1.506875 0.42663,-1.962968 0.42663,-1.962967 -0.20661,-0.179312 c -0.11364,-0.09862 -1.20047,-0.572791 -2.41517,-1.05371 l -2.20855,-0.874398 -0.24352,0.370844 c -0.13393,0.203965 -0.60221,0.98697 -1.04063,1.740012 l -0.79711,1.369167 -2.15798,0.08604 -2.15798,0.08604 -1.00632,-1.5875 c -0.55347,-0.873125 -1.03947,-1.683359 -1.07999,-1.80052 l -0.0737,-0.21302 -2.31124,0.967504 c -1.27118,0.532128 -2.37134,1.06475 -2.4448,1.183606 l -0.13356,0.216101 0.39914,1.532399 c 0.21953,0.842819 0.39657,1.715743 0.39344,1.939831 l -0.006,0.407432 -1.36529,1.419788 -1.36528,1.419787 -1.34099,-0.311963 c -0.73754,-0.17158 -1.67447,-0.334235 -2.08207,-0.361455 l -0.74108,-0.04949 -0.89952,2.116666 c -0.49474,1.164167 -0.9054,2.260757 -0.91257,2.436868 l -0.013,0.3202 1.71473,1.002716 1.71472,1.002716 0.005,2.163395 0.005,2.163394 -1.38906,0.808497 c -0.76399,0.444673 -1.54816,0.913269 -1.74262,1.041325 l -0.35355,0.232828 0.85298,2.086947 c 0.46914,1.147821 0.98648,2.232573 1.14964,2.410561 l 0.29665,0.323614 1.45288,-0.386619 c 0.79908,-0.212641 1.69506,-0.388033 1.99108,-0.38976 l 0.5382,-0.0031 1.41402,1.431804 1.41402,1.431803 -0.43464,1.924635 -0.43464,1.924634 0.20221,0.20008 c 0.23197,0.22953 4.0258,1.75629 4.45683,1.79357 l 0.28587,0.0247 z m 0.92295,-7.885293 c -1.62343,-0.458996 -2.94544,-1.312568 -4.14688,-2.677473 l -1.00027,-1.136367 -0.4639,-1.294181 -0.4639,-1.294182 10e-4,-1.643721 0.001,-1.64372 0.5453,-1.457455 0.5453,-1.457455 1.18254,-1.216742 1.18254,-1.216742 1.23253,-0.545205 1.23252,-0.545206 1.6228,-0.130263 1.62281,-0.130263 1.47945,0.43009 1.47946,0.430089 1.27956,1.011939 1.27956,1.011938 0.72928,1.341293 0.72929,1.341292 0.26828,1.414631 0.26828,1.414632 -0.30059,1.456892 c -0.16532,0.801291 -0.5151,1.873611 -0.77729,2.382934 l -0.47671,0.926042 -1.14631,1.111821 -1.14631,1.11182 -1.23213,0.543306 -1.23213,0.543307 -1.546,0.128639 -1.54599,0.128638 z m 4.1438,-1.633742 1.31635,-0.390914 1.08039,-0.924768 1.08038,-0.924769 0.5999,-1.264005 0.59991,-1.264005 0.0238,-1.455208 0.0238,-1.455209 -0.47794,-1.249393 -0.47793,-1.249394 -1.27691,-1.148049 -1.27691,-1.148049 -1.04982,-0.314536 -1.04983,-0.314537 -1.29222,0.0026 -1.29222,0.0026 -1.33763,0.622872 -1.33763,0.622872 -0.935,1.09233 -0.93499,1.09233 -0.30706,1.024889 -0.30707,1.024889 v 1.438708 1.438708 l 0.68533,1.375282 0.68534,1.375282 0.96831,0.802084 0.96831,0.802083 1.19063,0.369697 c 0.65484,0.203333 1.55597,0.377989 2.0025,0.388125 l 0.81187,0.01843 z m 18.56395,-10.869435 -0.72095,-0.391247 -0.27123,-0.506808 -0.27124,-0.506807 0.009,-22.573123 0.009,-22.5731222 0.49373,-0.591736 0.49374,-0.591736 0.70531,-0.26816 0.705313,-0.26816 h 3.17517 3.17517 l 0.57792,0.29555 c 0.31785,0.162553 0.78363,0.549506 1.03505,0.859896 l 0.45714,0.564346 0.006,22.5731222 0.006,22.573123 -0.27243,0.509033 -0.27243,0.509034 -0.77276,0.399614 -0.77277,0.399614 -3.38657,-0.01059 -3.38658,-0.01059 z m 7.667793,-23.780386 0.0677,-22.2084442 -0.33225,-0.210941 -0.33225,-0.210941 -2.82264,-0.0041 c -1.55244,-0.0022 -3.01096,0.06822 -3.24114,0.156548 l -0.418523,0.160599 V 26.487667 48.640262 l 0.183913,0.183908 0.18391,0.183908 3.32182,-0.07367 3.32182,-0.07367 z m -5.29319,0.888293 -0.46302,-0.269684 v -0.761704 -0.761704 l 0.41577,-0.415774 0.41578,-0.415774 h 1.41741 1.41741 l 0.41577,0.415774 0.41578,0.415774 v 0.765542 0.765542 l -0.51178,0.273892 -0.51177,0.273893 -1.27416,-0.008 -1.27417,-0.008 z m 2.97656,-1.169432 v -0.396875 h -1.19062 -1.19063 v 0.396875 0.396875 h 1.19063 1.19062 z m -3.02381,-2.929315 -0.41577,-0.415774 v -0.623661 -0.62366 l 0.41577,-0.415774 0.41578,-0.415774 h 1.32141 1.32141 l 0.51177,0.273893 0.51178,0.273892 v 0.765542 0.765542 l -0.41578,0.415774 -0.41577,0.415774 h -1.41741 -1.41741 z m 3.02381,-1.039435 v -0.396875 h -1.19062 -1.19063 v 0.396875 0.396875 h 1.19063 1.19062 z m -2.85154,-2.925419 -0.58804,-0.411878 v -0.72583 -0.725831 l 0.3175,-0.3175 0.3175,-0.3175 h 1.61396 1.61396 l 0.3175,0.3175 0.3175,0.3175 v 0.725831 0.72583 l -0.58804,0.411878 -0.58804,0.411878 h -1.07288 -1.07288 z m 2.85154,-1.04333 v -0.396875 h -1.19062 -1.19063 v 0.396875 0.396875 h 1.19063 1.19062 z m -2.97656,-2.799318 -0.46302,-0.269685 v -0.7656 -0.7656 l 0.58804,-0.411878 0.58804,-0.411877 h 1.22303 1.22304 l 0.43788,0.483854 0.43789,0.483854 v 0.697462 0.697461 l -0.51178,0.273893 -0.51177,0.273892 -1.27416,-0.008 -1.27417,-0.008 z m 2.97656,-1.169432 v -0.396875 h -1.19062 -1.19063 v 0.396875 0.396875 h 1.19063 1.19062 z m -2.97656,-2.799318 -0.46302,-0.269685 V 10.656366 9.9167698 l 0.48385,-0.437882 0.48386,-0.437882 h 1.34933 1.34933 l 0.41577,0.415773 0.41578,0.415774 v 0.7655422 0.765543 l -0.51178,0.273892 -0.51177,0.273892 -1.27416,-0.008 -1.27417,-0.008 z m 2.97656,-1.169432 v -0.396875 h -1.19062 -1.19063 v 0.396875 0.396875 h 1.19063 1.19062 z M 22.277566,42.47786 22.090016,42.29031 V 19.963977 -2.3623562 l 0.37174,-0.7144641 c 0.20445,-0.392956 0.65094,-0.975097 0.99219,-1.293646 l 0.62045,-0.57918 1.19062,-0.274247 1.19063,-0.274248 11.77396,0.0051 11.77395,0.0051 1.14531,0.221341 1.1453,0.221342 0.91033,0.882326 0.91033,0.882326 0.26106,0.9695111 0.26106,0.969511 -0.0677,21.1036692 -0.0677,21.103669 -0.42705,0.269361 -0.42706,0.269361 -0.43284,-0.166095 -0.43284,-0.166096 v -21.3204 -21.3204012 l -0.37703,-0.7291 -0.37703,-0.7291001 -0.69375,-0.316094 -0.69375,-0.316094 h -12.25119 -12.25119 l -0.77254,0.269308 -0.77254,0.269309 -0.39142,0.5905871 -0.39143,0.590588 -0.13229,22.2249992 -0.13229,22.224999 -0.54005,0.07731 -0.54006,0.07731 z m 13.70308,-6.599365 c -0.43656,-0.226233 -1.18397,-0.787799 -1.6609,-1.247924 l -0.86714,-0.836592 -0.39146,-1.318159 -0.39145,-1.318159 0.16369,-0.938016 0.16369,-0.938015 0.6219,-1.088415 0.62191,-1.088415 4.39388,-2.972309 4.39387,-2.972309 0.18017,0.179986 0.18017,0.179986 v 5.7741 5.774101 l -0.8189,1.017054 -0.8189,1.017054 -1.03318,0.59096 -1.03319,0.59096 -1.4552,0.0027 -1.45521,0.0027 z m 4.32637,-1.632899 c 0.36741,-0.27431 0.9135,-0.829709 1.21353,-1.234219 l 0.54551,-0.735473 -0.0504,-4.105211 c -0.0277,-2.257867 -0.10656,-4.161338 -0.17516,-4.229936 -0.0686,-0.0686 -1.5618,0.838057 -3.31823,2.01479 l -3.1935,2.139514 -0.43458,0.663248 -0.43458,0.663247 -0.12851,1.140198 -0.12852,1.140197 0.54665,1.071517 0.54664,1.071517 1.13616,0.576667 1.13615,0.576666 1.03543,-0.126988 1.03543,-0.126988 z m -6.90606,-10.707476 -1.25677,-0.783525 v -1.300059 -1.300059 l 1.25035,-0.77824 1.25036,-0.778241 1.26319,0.687513 1.26318,0.687513 -2.7e-4,1.479304 -2.6e-4,1.479304 -1.25651,0.695008 -1.2565,0.695007 z m 2.02888,-1.163964 0.41852,-0.160599 v -0.701798 -0.701798 l -0.53526,-0.334276 -0.53526,-0.334275 -0.52308,0.27994 -0.52307,0.27994 v 0.762392 0.762393 l 0.33073,0.133452 c 0.47826,0.19298 0.89113,0.197398 1.36742,0.01463 z m -8.11171,1.141074 -0.98959,-0.5836 -0.003,-1.498734 -0.003,-1.498733 1.19062,-0.665453 1.19063,-0.665453 1.19062,0.665453 1.19063,0.665453 -0.002,1.498733 -0.002,1.498734 -1.04257,0.595313 c -1.27194,0.726284 -1.47113,0.725426 -2.72108,-0.01171 z m 2.0263,-1.141074 0.41851,-0.160599 V 21.457423 20.70129 l -0.52917,-0.283201 -0.52916,-0.283202 -0.52917,0.283202 -0.52917,0.283201 v 0.762392 0.762393 l 0.33073,0.133452 c 0.47826,0.19298 0.89114,0.197398 1.36743,0.01463 z m -2.02471,-6.960944 -0.86407,-0.771544 -0.0811,-5.7556282 -0.0811,-5.755627 1.92655,-1.939495 1.92655,-1.93949497 h 8.07019 8.07019 l 1.92445,1.91160697 1.92446,1.911607 v 5.655476 5.6554762 l -0.89959,0.899583 -0.89958,0.899583 h -10.07645 -10.07645 z m 21.00937,-0.989255 0.48385,-0.437882 V 8.7932788 3.6004828 l -1.52903,-1.513072 -1.52902,-1.51307197 h -7.54124 -7.54123 l -1.51308,1.52902697 -1.51307,1.529026 v 5.026685 5.0266862 l 0.41188,0.588038 0.41188,0.588038 h 9.6876 9.6876 z m -9.98694,-0.973374 -0.15231,-0.396926 1.0203,-3.3953882 1.0203,-3.395388 h 0.38864 0.38865 l 0.0668,0.529166 0.0668,0.529167 -1.00033,3.1554382 -1.00034,3.155439 -0.32312,0.107709 -0.32313,0.10771 z m -8.6674,-6.9672162 c -0.097,-0.09701 -0.17639,-0.309983 -0.17639,-0.473264 v -0.296874 l 1.43977,-0.872593 1.43977,-0.872594 1.66908,-0.537155 1.66908,-0.537155 2.38125,-0.0229 2.38125,-0.0229 1.85209,0.578762 1.85208,0.578761 1.38906,0.803335 1.38907,0.803335 v 0.523814 0.523815 h -0.30147 c -0.16581,0 -0.85042,-0.334828 -1.52135,-0.744061 -0.67094,-0.409234 -1.75567,-0.959824 -2.41052,-1.223534 l -1.19062,-0.479472 -2.41433,-0.133705 -2.41433,-0.133705 -1.42213,0.32785 -1.42213,0.327851 -1.93854,1.029388 c -2.16703,1.150716 -2.01181,1.091886 -2.25069,0.852999 z"
       id="path1" /></g></svg>
