<?xml version="1.0" encoding="UTF-8" standalone="no"?>
<!-- Created with Inkscape (http://www.inkscape.org/) -->

<svg
   width="138.56963mm"
   height="123.52622mm"
   viewBox="0 0 138.56963 123.52622"
   version="1.1"
   id="svg1"
   xml:space="preserve"
   inkscape:version="1.4 (86a8ad7, 2024-10-11)"
   sodipodi:docname="pruebasFugaIcon.svg"
   xmlns:inkscape="http://www.inkscape.org/namespaces/inkscape"
   xmlns:sodipodi="http://sodipodi.sourceforge.net/DTD/sodipodi-0.dtd"
   xmlns="http://www.w3.org/2000/svg"
   xmlns:svg="http://www.w3.org/2000/svg"><sodipodi:namedview
     id="namedview1"
     pagecolor="#505050"
     bordercolor="#eeeeee"
     borderopacity="1"
     inkscape:showpageshadow="0"
     inkscape:pageopacity="0"
     inkscape:pagecheckerboard="0"
     inkscape:deskcolor="#505050"
     inkscape:document-units="mm"
     inkscape:zoom="0.49264169"
     inkscape:cx="236.48019"
     inkscape:cy="378.57129"
     inkscape:window-width="1366"
     inkscape:window-height="697"
     inkscape:window-x="-8"
     inkscape:window-y="-8"
     inkscape:window-maximized="1"
     inkscape:current-layer="g1" /><defs
     id="defs1" /><g
     inkscape:label="Capa 1"
     inkscape:groupmode="layer"
     id="layer1"><g
       id="g1"
       transform="translate(4.757298,11.353696)"><path
         style="fill:#fdcb00"
         d="m 57.846831,109.1188 c -0.727604,-0.0428 -3.585104,-0.20783 -6.35,-0.36662 -16.105879,-0.92499 -28.397157,-3.94428 -32.631118,-8.01567 -1.61731,-1.555214 -1.951075,-2.339984 -2.099061,-4.935434 l -0.129067,-2.26364 -2.678711,0.22046 c -4.3322913,0.35657 -7.7485493,0.14804 -9.1939273,-0.56121 -2.958569,-1.45177 -5.19078902,-4.7885 -5.46176298,-8.164261 -0.129216,-1.60976 -0.217091,-1.81139 -1.16112702,-2.66427 -1.878311,-1.69694 -1.836039,-1.11719 -1.752613,-24.037117 0.08217,-22.575882 -0.04736,-20.975795 1.851801,-22.874953 0.644189,-0.644189 0.94935202,-1.270103 1.18682002,-2.434265 0.66705496,-3.270166 2.51746298,-5.715814 5.31781598,-7.028455 1.477913,-0.692758 1.608218,-0.706162 6.7063723,-0.689826 l 5.199174,0.01666 0.09993,-5.308325 c 0.115388,-6.129447 0.234949,-6.552768 2.472714,-8.754988 3.228026,-3.1767502 9.678365,-5.7753482 18.712862,-7.5387062 l 1.521355,-0.296939 0.0058,-3.09009596 c 0.0066,-3.53641904 0.377908,-4.72207804 1.874769,-5.98730994 2.217555,-1.874404 6.759117,-3.364571 13.068379,-4.287966 4.767521,-0.6977529 14.661735,-0.6333579 19.377976,0.126118 6.62972,1.067612 10.10843,2.255652 12.24178,4.180786 1.61934,1.4612889 1.85004,2.1979549 1.85004,5.90744594 0,3.08435596 0.0176,3.18199696 0.59531,3.29804196 7.25501,1.457371 10.61754,2.448217 14.348998,4.228251 3.89983,1.86035 6.40989,4.0467362 7.2659,6.3289492 0.16175,0.431231 0.27937,2.958615 0.27937,6.002817 v 5.257988 l 6.01927,-0.04969 6.01928,-0.04969 1.47877,0.72623 c 2.78683,1.368623 4.6913,3.955327 5.28535,7.178713 0.22397,1.21526 0.46391,1.704163 1.09835,2.238013 0.44648,0.375687 1.03035,1.164244 1.29749,1.752347 0.45801,1.008314 0.48571,2.253475 0.48571,21.83907 0,19.782256 -0.0237,20.822016 -0.49872,21.868136 -0.2743,0.60409 -0.85169,1.3593 -1.28309,1.67826 -0.68305,0.50499 -0.80699,0.80062 -0.95943,2.28854 -0.0963,0.939751 -0.41765,2.357031 -0.71415,3.149511 -0.67658,1.80832 -2.77806,4.14765 -4.5785,5.09671 -1.26122,0.66482 -1.56674,0.71019 -4.78678,0.71085 -1.89178,3.9e-4 -4.65998,-0.0892 -6.15157,-0.19906 l -2.71198,-0.19977 v 2.29905 c 0,1.78723 -0.12242,2.55194 -0.54994,3.43507 -2.63761,5.448574 -14.772018,8.858204 -35.141448,9.874334 -4.897761,0.24432 -13.477931,0.29323 -16.828402,0.0959 z m 18.028461,-4.33176 c 12.68577,-0.72941 22.29769,-2.37655 26.963058,-4.6205 2.27269,-1.093124 3.29494,-2.168524 3.29494,-3.466274 v -0.90955 l -1.53879,0.77678 c -5.845128,2.95061 -16.498068,5.250584 -29.020588,6.265544 -6.544021,0.5304 -21.331241,0.38601 -27.516665,-0.26869 -9.684084,-1.02503 -19.017126,-3.121534 -24.394189,-5.479724 -1.365253,-0.59875 -2.551325,-1.0196 -2.635716,-0.93521 -0.317357,0.31736 0.23348,1.60819 0.986396,2.31152 4.656095,4.349444 32.12621,7.575844 53.861554,6.326104 z m -3.0795,-3.17541 c 12.85583,-0.73422 25.02525,-3.180864 31.220828,-6.276884 l 1.98438,-0.99162 0.0675,-24.264871 0.0675,-24.264881 -0.66538,0.665374 c -0.83076,0.830759 -2.23307,1.430006 -3.3464,1.430006 -1.32626,0 -3.082568,-0.990851 -3.872728,-2.184852 -0.64093,-0.968512 -0.71572,-1.357368 -0.84627,-4.399716 -0.15078,-3.513787 -0.40059,-4.356197 -1.63175,-5.502495 -2.47809,-2.307298 -6.96166,-0.962089 -7.91899,2.375945 -0.13315,0.464246 -0.24208,5.083746 -0.24208,10.265556 0,9.334859 -0.005,9.429514 -0.59532,10.296168 -0.79248,1.164399 -1.73894,1.834849 -2.98787,2.116527 -1.28023,0.288738 -3.29145,-0.111585 -4.21657,-0.839284 -1.39075,-1.093962 -1.58168,-1.845431 -1.7369,-6.836183 -0.11461,-3.685041 -0.23764,-4.805969 -0.60272,-5.491232 -1.15539,-2.168705 -4.48876,-3.084836 -6.773091,-1.861493 -2.26341,1.212136 -2.2521,1.169646 -2.40212,9.024768 -0.12175,6.375288 -0.17649,7.011196 -0.68726,7.985248 -1.68319,3.209834 -6.83452,3.062464 -8.333592,-0.238408 -0.450277,-0.991482 -0.493059,-1.890193 -0.498747,-10.477216 -0.007,-10.623584 1.35e-4,-10.581453 -2.044147,-12.007503 -2.347715,-1.637719 -6.108017,-0.713092 -7.240166,1.780297 -0.440532,0.970208 -0.49973,1.790359 -0.504859,6.994558 -0.0068,6.889156 -0.103979,7.295753 -2.041277,8.539897 -1.135299,0.729095 -1.44593,0.806472 -2.89371,0.720807 -1.269259,-0.0751 -1.829355,-0.254211 -2.576135,-0.823807 -1.605447,-1.224535 -1.610881,-1.252525 -1.755106,-9.040707 -0.148032,-7.993733 -0.190365,-8.190072 -2.042634,-9.473695 -1.897154,-1.314728 -4.425428,-1.205203 -6.175674,0.267532 -1.397367,1.175807 -1.570714,1.815471 -1.577087,5.819586 -0.0077,4.819482 -0.528173,6.059583 -2.971937,7.080652 -1.888028,0.788869 -3.977988,0.363569 -5.318711,-1.082341 l -0.699374,-0.754244 v 22.020906 22.020901 l 2.142777,1.07737 c 9.610295,4.831964 30.149319,7.446804 49.71556,6.329334 z M 60.228081,97.783376 c -2.054744,-0.38659 -3.463305,-0.85519 -5.136608,-1.70884 l -1.116399,-0.56955 0.579129,-0.9778 c 0.318521,-0.5378 1.828476,-3.15817 3.355457,-5.82305 2.115621,-3.692181 2.874221,-4.807681 3.187681,-4.687391 1.20795,0.46353 2.67113,0.61033 3.76095,0.37732 0.65484,-0.14001 1.3595,-0.28047 1.5659,-0.31213 0.23551,-0.0361 1.59034,2.043301 3.63802,5.583731 1.794511,3.10271 3.262751,5.73559 3.262751,5.85085 0,0.41609 -3.274881,1.66658 -5.646231,2.15596 -2.78585,0.57492 -4.82312,0.60525 -7.45065,0.1109 z m 1.45252,-15.809521 c -2.013508,-1.37038 -2.647372,-3.54297 -1.58511,-5.43301 2.10355,-3.74275 7.67322,-2.34382 7.67322,1.92728 0,3.20016 -3.54108,5.23923 -6.08811,3.50573 z M 44.08138,76.591325 c 0.58966,-5.50616 3.306637,-10.44193 7.468811,-13.568132 0.989298,-0.743061 1.917785,-1.350094 2.063306,-1.348962 0.145521,0.0011 1.709163,2.516174 3.474761,5.588984 l 3.210173,5.58692 -0.936995,0.8227 c -0.99314,0.87198 -2.16916,3.07292 -2.173479,4.06769 l -0.0026,0.59531 h -6.645406 -6.645407 z m 26.068581,1.00271 c 0,-1.05028 -1.24468,-3.41784 -2.14789,-4.08562 -0.41939,-0.31007 -0.76253,-0.676 -0.76253,-0.81318 0,-0.41116 6.190361,-11.028149 6.430101,-11.028149 0.42828,0 2.44878,1.540921 3.86242,2.945649 3.27365,3.25301 5.06992,7.1889 5.68941,12.46633 l 0.14753,1.25677 h -6.60952 -6.609521 z m -55.562507,12.683011 1.984375,-0.16725 0.07868,-1.06972 0.07868,-1.06973 -1.930767,0.19347 c -3.410613,0.34176 -7.0415383,0.26491 -7.8761713,-0.1667 -0.987665,-0.51074 -1.853573,-1.74495 -2.042941,-2.911891 -0.142111,-0.87573 -0.208924,-0.92856 -1.174398,-0.92856 -1.168934,0 -1.266376,0.30793 -0.701951,2.218261 0.437023,1.47914 2.655035,3.69856 4.052982,4.05557 1.002522,0.25602 3.2059153,0.21113 7.5315043,-0.15345 z m 107.681476,-0.16521 c 1.97745,-1.02258 3.26558,-2.76478 3.60263,-4.872551 l 0.17311,-1.08262 h -1.08016 c -1.01781,0 -1.08985,0.0517 -1.24803,0.89484 -0.24379,1.299501 -1.03072,2.454471 -2.02141,2.966771 -0.74344,0.38445 -1.39,0.42421 -4.57576,0.28134 -2.04049,-0.0915 -4.39459,-0.24432 -5.23133,-0.33959 l -1.52136,-0.17322 v 1.07429 1.07429 l 1.65365,0.1744 c 6.34215,0.66888 8.95814,0.6694 10.24866,0.002 z m -107.946059,-5.382351 2.248958,-0.17594 0.06749,-25.045408 0.06748,-25.045407 -2.184152,-0.153568 c -1.201283,-0.08446 -3.07712,-0.184498 -4.168526,-0.2223 -1.9842963,-0.06873 -1.9843783,-0.0687 -2.0676343,0.654089 -0.05506,0.478006 0.168973,1.05348 0.661459,1.699094 l 0.744717,0.976273 0.07076,21.255007 c 0.0693,20.81663 0.05983,21.27643 -0.45924,22.29389 -0.291499,0.57139 -0.650762,1.11352 -0.798363,1.20474 -0.285268,0.17631 -0.377772,2.58286 -0.109589,2.85104 0.08733,0.0873 0.950529,0.097 1.9182293,0.0216 0.9677,-0.0755 2.771486,-0.21635 4.008413,-0.31311 z m 105.780419,0.16802 c 0.56451,-0.56452 0.38004,-2.30991 -0.33379,-3.15825 -0.35821,-0.42571 -0.77426,-1.21681 -0.92457,-1.75799 -0.37506,-1.35049 -0.37506,-40.569535 0,-41.920024 0.15031,-0.541184 0.56636,-1.332277 0.92457,-1.757985 0.69465,-0.825548 0.86679,-2.016713 0.32056,-2.218242 -0.1819,-0.06711 -2.05713,-0.02794 -4.16719,0.08706 -2.11005,0.114992 -4.22341,0.216694 -4.69635,0.226005 l -0.8599,0.01693 v 24.970127 24.970119 l 3.37344,0.3016 c 1.85539,0.16588 3.90922,0.33853 4.56406,0.38365 0.65485,0.0451 1.25611,0.10285 1.33615,0.12827 0.08,0.0254 0.2884,-0.0966 0.46302,-0.27127 z m 8.05121,-4.17145 c 0.36373,-0.28611 0.79872,-0.85189 0.96664,-1.25729 0.22377,-0.54022 0.28633,-6.13111 0.23425,-20.932826 l -0.0711,-20.195741 -0.86407,-0.771972 c -0.79051,-0.706252 -1.03159,-0.771972 -2.83182,-0.771972 -2.27393,0 -3.05489,0.28102 -3.66871,1.32014 -0.40095,0.678753 -0.43976,2.563824 -0.43123,20.945682 0.008,16.258559 0.0778,20.323179 0.35985,20.832139 0.55638,1.00383 1.44495,1.33249 3.62999,1.34266 1.61216,0.007 2.14701,-0.0946 2.67616,-0.51082 z M 5.4945077,80.248185 c 0.31039,-0.25143 0.697343,-0.7172 0.859896,-1.03506 0.209821,-0.41028 0.29555,-6.26602 0.29555,-20.187617 0,-16.973083 -0.05373,-19.713601 -0.399613,-20.382466 -0.55447,-1.072227 -1.145825,-1.317621 -3.17522,-1.317621 -1.589765,0 -1.831367,0.07383 -2.53093602,0.773397 l -0.773398,0.773398 v 20.149037 20.149042 l 0.773398,0.77339 c 0.70539502,0.7054 0.93221902,0.77288 2.57968702,0.76752 1.310592,-0.004 1.961163,-0.13134 2.370636,-0.46302 z m -0.33983,-47.222243 c 0.448838,-1.060578 1.082755,-1.640577 2.390125,-2.186831 1.00109,-0.418282 2.8246223,-0.412435 7.6379643,0.02449 l 1.521354,0.138099 v -1.04772 -1.047721 l -2.182812,-0.171823 c -1.200547,-0.0945 -3.313907,-0.194488 -4.6963553,-0.222189 -2.368848,-0.04747 -2.597312,-0.0031 -3.96875,0.771451 -1.492718,0.843001 -2.680749,2.366729 -3.020927,3.874538 -0.157921,0.699973 -0.123909,0.727604 0.895669,0.727604 0.944661,0 1.099366,-0.09344 1.423732,-0.859896 z M 125.72699,33.142777 c -0.62612,-2.183154 -2.16458,-3.773132 -4.25015,-4.392482 -1.10381,-0.327796 -2.04726,-0.353888 -5.49384,-0.151943 -2.28864,0.134099 -4.48859,0.247548 -4.88877,0.25211 -0.6711,0.0076 -0.72761,0.09048 -0.72761,1.066626 0,1.250977 -0.46571,1.186797 5.65531,0.779363 4.12124,-0.274324 4.21152,-0.268814 5.41944,0.330729 0.91714,0.455217 1.36246,0.892184 1.75755,1.724591 0.49579,1.044587 0.59891,1.115496 1.63517,1.124479 1.08765,0.0094 1.10247,-0.0028 0.8929,-0.733473 z M 71.076002,32.293433 c 14.74338,-0.786919 27.26145,-3.28728 33.535938,-6.698472 1.4367,-0.78108 1.52135,-0.88259 1.52135,-1.824362 0,-0.548493 -0.0613,-0.997261 -0.1363,-0.997261 -0.075,0 -0.75957,0.349007 -1.52135,0.775571 -7.890998,4.418619 -22.815478,6.987558 -40.675689,7.001472 -17.581745,0.0137 -32.532146,-2.468435 -40.386837,-6.705202 -1.092918,-0.589512 -2.097045,-1.071841 -2.231392,-1.071841 -0.134347,0 -0.244267,0.415633 -0.244267,0.923629 0,0.903905 0.05509,0.951132 2.579687,2.211476 2.95934,1.477379 4.726602,2.118164 8.420781,3.053258 8.885778,2.249225 17.879821,3.241542 32.258908,3.559141 1.01865,0.0225 4.11427,-0.07983 6.879171,-0.227409 z m 4.89479,-6.345461 c 12.20559,-0.984094 23.76054,-3.877322 28.026038,-7.017401 1.75176,-1.289569 2.13646,-1.831532 2.13646,-3.009799 0,-2.472391 -6.11139,-5.571588 -14.684378,-7.4467122 -1.30968,-0.286461 -2.64914,-0.581861 -2.97656,-0.656445 -0.5743,-0.130822 -0.59531,-0.06915 -0.59531,1.747676 0,2.1914022 -0.45866,3.3651992 -1.67754,4.2931522 -3.54732,2.700629 -10.33019,3.936425 -21.605791,3.936437 -13.850035,1.4e-5 -23.002355,-2.115783 -24.708924,-5.712111 -0.25974,-0.54736 -0.426498,-1.588407 -0.426498,-2.6625592 0,-1.555362 -0.05471,-1.747663 -0.463021,-1.627385 -0.254662,0.07502 -1.212686,0.267875 -2.128944,0.428573 -2.082782,0.36529 -6.400218,1.627967 -9.181994,2.6853662 -4.94134,1.878285 -7.330562,4.149544 -6.35321,6.039534 2.228497,4.309439 16.283899,8.196198 33.473002,9.256333 4.609772,0.284307 16.21345,0.144702 21.16667,-0.254659 z M 70.282251,13.514153 c 5.676811,-0.356941 10.138601,-1.091859 12.633851,-2.080965 l 0.72761,-0.288419 V 7.0063208 c 0,-3.822958 -0.0353,-4.126849 -0.46303,-3.986287 -6.11902,2.0109 -12.913861,3.073391 -19.711451,3.082232 l -1.78594,0.0023 v 0.754268 c 0,2.114816 -1.18621,3.1923182 -2.627501,2.386714 -0.556202,-0.310886 -0.694454,-0.606901 -0.760435,-1.628183 -0.0667,-1.032469 -0.1696,-1.248216 -0.595313,-1.248216 -0.457051,0 -0.51467,0.192536 -0.51467,1.719792 0,1.906364 -0.523793,2.7781252 -1.669222,2.7781252 -1.188797,0 -1.600236,-0.593451 -1.720462,-2.4815552 -0.0955,-1.499792 -0.183229,-1.751778 -0.609889,-1.751778 -0.444761,0 -0.498343,0.218234 -0.498343,2.029687 0,2.2466312 -0.379118,2.9973962 -1.51361,2.9973962 -1.458954,0 -1.66139,-0.352312 -1.66139,-2.8914182 0,-1.898263 -0.07996,-2.374316 -0.420752,-2.505091 -0.715722,-0.274649 -0.902165,0.07832 -0.902165,1.707957 0,2.2944892 -1.114186,3.2499132 -2.586962,2.2183412 -0.526795,-0.3689822 -0.588038,-0.6390302 -0.588038,-2.5929172 0,-2.193166 -0.258307,-2.90337 -0.958283,-2.634764 -0.516171,0.198074 -0.524413,5.7067442 -0.0092,6.1343502 0.56174,0.466203 4.253373,1.317243 7.681416,1.770813 6.374248,0.843388 12.192909,1.045994 18.553759,0.646043 z M 69.091621,1.5996718 c 7.048311,-0.489338 14.552091,-2.47532396 14.552091,-3.851428 0,-0.507477 -2.57558,-1.697911 -5.35227,-2.4738299 -6.16873,-1.723785 -18.187901,-2.034268 -26.001556,-0.67168 -2.832399,0.493929 -7.050777,1.8563419 -7.958514,2.5703679 -0.840593,0.66121 -0.543857,1.073629 1.386807,1.92746104 C 50.550872,1.2378088 59.902191,2.2376598 69.091621,1.5996718 Z M 57.053081,-0.52977216 C 52.079368,-1.0285272 50.863402,-2.6255232 54.709364,-3.6079072 c 2.350366,-0.60036 12.945337,-0.768634 16.305398,-0.25897 3.81885,0.579255 4.92545,1.59977 2.83936,2.618472 -1.79768,0.87786304 -11.201861,1.28010904 -16.801041,0.71863304 z m 13.92719,-1.53545704 c 0.580461,-0.220284 0.549631,-0.252775 -0.43344,-0.456891 -0.58208,-0.120858 -3.55865,-0.221477 -6.61458,-0.223597 -5.268472,-0.0037 -8.319184,0.222445 -7.952256,0.589374 0.553577,0.553576 13.573296,0.632661 15.000276,0.09111 z"
         id="path1" /></g></g></svg>
